<svg width="533" height="490" viewBox="0 0 533 490" fill="none" xmlns="http://www.w3.org/2000/svg">
<path d="M189.5 327.5H81L49.5 316L26.5 297L8 270L0.5 244.5V220.5L8 194.5L20.5 174.5L41.5 155.5L49.5 149.5V135L57 115L69.5 99L87.5 87.5L103 80.5H115.5H129.5L137.5 59.5L162 29L189.5 10L220.5 0.5H235H263.5H275L297 10L315.5 19.5L334.5 37.5L349 54H369L397.5 59.5L418.5 70L433 80.5L447.5 99L455 123V140L479 149.5L501 165L518 183L527.5 207L532.5 227V244.5L527.5 270L511.5 292L495 308.5L479 316L459 323.5L441.5 327.5H418.5H397.5H376.5L389 316L407 297L173.5 174.5" stroke="black"/>
<g filter="url(#filter0_d_4_9)">
<path d="M199.5 436.5L171.5 173.5L406.5 297.5L331.5 350L382 427.5V460L339.5 481L277.5 388.5L199.5 436.5Z" stroke="black" shape-rendering="crispEdges"/>
</g>
<defs>
<filter id="filter0_d_4_9" x="166.903" y="172.62" width="244.554" height="317.022" filterUnits="userSpaceOnUse" color-interpolation-filters="sRGB">
<feFlood flood-opacity="0" result="BackgroundImageFix"/>
<feColorMatrix in="SourceAlpha" type="matrix" values="0 0 0 0 0 0 0 0 0 0 0 0 0 0 0 0 0 0 127 0" result="hardAlpha"/>
<feOffset dy="4"/>
<feGaussianBlur stdDeviation="2"/>
<feComposite in2="hardAlpha" operator="out"/>
<feColorMatrix type="matrix" values="0 0 0 0 0 0 0 0 0 0 0 0 0 0 0 0 0 0 0.25 0"/>
<feBlend mode="normal" in2="BackgroundImageFix" result="effect1_dropShadow_4_9"/>
<feBlend mode="normal" in="SourceGraphic" in2="effect1_dropShadow_4_9" result="shape"/>
</filter>
</defs>
</svg>
